<?xml version="1.0" encoding="utf-8"?>
<!-- Generator: Adobe Illustrator 23.0.3, SVG Export Plug-In . SVG Version: 6.00 Build 0)  -->
<svg version="1.1" id="Layer_1" xmlns="http://www.w3.org/2000/svg" xmlns:xlink="http://www.w3.org/1999/xlink" x="0px" y="0px"
	 width="454px" height="485px" viewBox="0 0 454 485" style="enable-background:new 0 0 454 485;" xml:space="preserve">
<style type="text/css">
	.st0{fill:#35BDFF;}
	.st1{fill:#CCCCCC;}
	.st2{fill:#F2F2F2;}
	.st3{fill:#6C63FF;}
	.st4{fill:#3F3D56;}
	.st5{fill:#FFFFFF;}
	.st6{fill:#E6E6E6;}
	.st7{fill:#FFB6B6;}
	.st8{fill:#E4E4E4;}
	.st9{fill:#2F2E41;}
</style>
<rect class="st0" width="454" height="485"/>
<g>
	<path class="st1" d="M383.6,304.4H148.9c-2.1,0-3.8,1.7-3.8,3.8s1.7,3.8,3.8,3.8h6.6v89.9c0,2.1,1.7,3.8,3.8,3.8
		c2.1,0,3.8-1.7,3.8-3.8l0.1-89.9h188.4l17.4,89.9c0,2.1,1.7,3.8,3.8,3.8s3.8-1.7,3.8-3.8l1.1-89.9h6.1c2.1,0,3.8-1.7,3.8-3.8
		S385.7,304.4,383.6,304.4L383.6,304.4z"/>
	<path class="st2" d="M189.6,287.6v15.9h-39.9c-4.4,0.2-8.1-3.3-8.2-7.7s3.3-8.1,7.7-8.2c0.2,0,0.4,0,0.6,0H189.6z"/>
	<path class="st3" d="M190.6,303.4c0,0.3-0.3,0.6-0.6,0.6H149c-4.6,0-8.4-3.8-8.4-8.4c0-4.6,3.8-8.4,8.4-8.4H190
		c0.3,0,0.6,0.3,0.6,0.6c0,0.3-0.3,0.6-0.6,0.6c0,0,0,0,0,0H149c-4,0-7.2,3.2-7.1,7.2c0,3.9,3.2,7.1,7.1,7.1H190
		C190.3,302.8,190.6,303.1,190.6,303.4z"/>
	<path class="st1" d="M189.6,291.3h-42.8c-0.1,0-0.1-0.1-0.1-0.1s0.1-0.1,0.1-0.1l0,0h42.8c0.1,0,0.1,0.1,0.1,0.1
		C189.7,291.2,189.7,291.3,189.6,291.3z"/>
	<path class="st1" d="M189.6,294.2h-42.8c-0.1,0-0.1-0.1-0.1-0.1c0-0.1,0.1-0.1,0.1-0.1l0,0h42.8c0.1,0,0.1,0.1,0.1,0.1
		C189.7,294.2,189.7,294.2,189.6,294.2z"/>
	<path class="st1" d="M189.6,297.2h-42.8c-0.1,0-0.1-0.1-0.1-0.1s0.1-0.1,0.1-0.1l0,0h42.8c0.1,0,0.1,0.1,0.1,0.1
		C189.7,297.1,189.7,297.2,189.6,297.2z"/>
	<path class="st1" d="M189.6,300.1h-42.8c-0.1,0-0.1-0.1-0.1-0.1c0-0.1,0.1-0.1,0.1-0.1h42.8c0.1,0,0.1,0.1,0.1,0.1
		C189.7,300.1,189.7,300.1,189.6,300.1z"/>
	<path class="st2" d="M182.1,270.9v15.9h-39.9c-4.4,0.2-8.1-3.3-8.2-7.7c-0.2-4.4,3.3-8.1,7.7-8.2c0.2,0,0.4,0,0.6,0H182.1z"/>
	<path class="st4" d="M183.1,286.7c0,0.3-0.3,0.6-0.6,0.6h-40.9c-4.6,0-8.4-3.8-8.4-8.4c0-4.6,3.8-8.4,8.4-8.4h40.9
		c0.3,0,0.6,0.3,0.6,0.6c0,0.3-0.3,0.6-0.6,0.6h-40.9c-4,0-7.2,3.2-7.2,7.2c0,3.9,3.2,7.1,7.2,7.2h40.9
		C182.8,286,183.1,286.3,183.1,286.7z"/>
	<path class="st1" d="M182.1,274.5h-42.8c-0.1,0-0.1-0.1-0.1-0.1s0.1-0.1,0.1-0.1l0,0h42.8c0.1,0,0.1,0.1,0.1,0.1
		C182.2,274.5,182.1,274.5,182.1,274.5z"/>
	<path class="st1" d="M182.1,277.5h-42.8c-0.1,0-0.1-0.1-0.1-0.1c0-0.1,0.1-0.1,0.1-0.1l0,0h42.8c0.1,0,0.1,0.1,0.1,0.1
		C182.2,277.4,182.1,277.5,182.1,277.5z"/>
	<path class="st1" d="M182.1,280.4h-42.8c-0.1,0-0.1-0.1-0.1-0.1c0-0.1,0.1-0.1,0.1-0.1l0,0h42.8c0.1,0,0.1,0.1,0.1,0.1
		C182.2,280.4,182.1,280.4,182.1,280.4z"/>
	<path class="st1" d="M182.1,283.3h-42.8c-0.1,0-0.1-0.1-0.1-0.1s0.1-0.1,0.1-0.1l0,0h42.8c0.1,0,0.1,0.1,0.1,0.1
		C182.2,283.3,182.1,283.3,182.1,283.3z"/>
	<path class="st1" d="M228.4,360.7v-13.9c0-1.3-1-2.3-2.3-2.3h-52.6c-1.3,0-2.3,1-2.3,2.3v13.9H228.4z"/>
	<rect x="171.2" y="365.9" class="st1" width="57.2" height="17.9"/>
	<path class="st1" d="M171.2,389v13.9c0,1.3,1,2.3,2.3,2.3h52.6c1.3,0,2.3-1,2.3-2.3V389H171.2z"/>
	<circle class="st5" cx="199.5" cy="353.2" r="1.7"/>
	<circle class="st5" cx="199.5" cy="376.3" r="1.7"/>
	<circle class="st5" cx="199.6" cy="398.9" r="1.7"/>
	<path class="st2" d="M222,328.7v15.9h-39.9c-4.4,0.2-8.1-3.3-8.2-7.7s3.3-8.1,7.7-8.2c0.2,0,0.4,0,0.6,0H222z"/>
	<path class="st4" d="M222.9,344.5c0,0.3-0.3,0.6-0.6,0.6h-40.9c-4.6,0-8.4-3.7-8.4-8.4c0-4.6,3.7-8.4,8.4-8.4l0,0h40.9
		c0.3,0,0.6,0.3,0.6,0.6c0,0.3-0.3,0.6-0.6,0.6c0,0,0,0,0,0h-40.9c-4,0-7.2,3.2-7.2,7.2c0,3.9,3.2,7.1,7.2,7.2h40.9
		C222.7,343.8,222.9,344.1,222.9,344.5z"/>
	<path class="st1" d="M222,332.3h-42.8c-0.1,0-0.1-0.1-0.1-0.1c0-0.1,0.1-0.1,0.1-0.1l0,0H222c0.1,0,0.1,0.1,0.1,0.1
		C222.1,332.3,222,332.3,222,332.3L222,332.3z"/>
	<path class="st1" d="M222,335.3h-42.8c-0.1,0-0.1-0.1-0.1-0.1c0-0.1,0.1-0.1,0.1-0.1l0,0H222c0.1,0,0.1,0.1,0.1,0.1
		C222.1,335.2,222,335.3,222,335.3L222,335.3z"/>
	<path class="st1" d="M222,338.2h-42.8c-0.1,0-0.1-0.1-0.1-0.1c0-0.1,0.1-0.1,0.1-0.1H222c0.1,0,0.1,0.1,0.1,0.1
		C222.1,338.2,222,338.2,222,338.2L222,338.2z"/>
	<path class="st1" d="M222,341.2h-42.8c-0.1,0-0.1-0.1-0.1-0.1c0-0.1,0.1-0.1,0.1-0.1l0,0H222c0.1,0,0.1,0.1,0.1,0.1
		C222.1,341.1,222,341.2,222,341.2L222,341.2z"/>
	<path class="st4" d="M175.1,265.6H157c-0.2,0-0.3,0-0.5,0.1l-4.6,2.3c-0.4,0.2-0.6,0.7-0.4,1.1c0.1,0.2,0.2,0.4,0.4,0.4l4.6,2.3
		c0.2,0.1,0.3,0.1,0.5,0.1h18.2c0.5,0,1-0.4,1-0.9v-4.6C176.1,265.9,175.7,265.5,175.1,265.6z"/>
	<path class="st3" d="M176.1,266.4v4.6c0,0.5-0.5,0.9-1,0.9h-3.6v-6.4h3.6C175.7,265.5,176.1,265.9,176.1,266.4z"/>
	<path class="st6" d="M66.3,355.5c4.8,1.7,10,0.7,13.9-2.5c4.9-4.1,6.4-10.8,7.7-17.1c1.2-6.2,2.5-12.3,3.7-18.5l-7.7,5.3
		c-5.5,3.8-11.2,7.8-15.1,13.3s-5.5,13.1-2.4,19.1"/>
	<path class="st2" d="M66.9,377.9c-0.8-5.7-1.6-11.4-1-17.2c0.5-5.1,2-10.1,5.2-14.2c1.7-2.2,3.7-4,6.1-5.5c0.6-0.4,1.2,0.6,0.6,1
		c-4,2.5-7.1,6.3-8.9,10.7c-1.9,4.9-2.2,10.3-1.9,15.5c0.2,3.2,0.6,6.3,1.1,9.4c0.1,0.3-0.1,0.6-0.4,0.7
		C67.3,378.3,67,378.2,66.9,377.9L66.9,377.9z"/>
	<path class="st6" d="M74.4,367.8c2,3.1,5.5,4.9,9.3,4.8c4.7-0.2,8.6-3.5,12.1-6.6l10.4-9.2l-6.9-0.3c-5-0.2-10-0.5-14.7,1.1
		s-9.1,5.2-9.9,10.1"/>
	<path class="st2" d="M64.7,381.1c3.8-6.6,8.1-14,15.9-16.4c2.2-0.7,4.4-0.9,6.7-0.7c0.7,0.1,0.5,1.2-0.2,1.1
		c-3.8-0.3-7.5,0.7-10.7,2.8c-3,2-5.4,4.9-7.3,7.9c-1.2,1.9-2.3,3.8-3.4,5.7C65.4,382.2,64.4,381.8,64.7,381.1L64.7,381.1z"/>
	<path class="st2" d="M58.7,388.1c0.3-3,2.2-5.6,4.9-6.7v-3.8h6.4v4c2.6,1.2,4.4,3.7,4.7,6.6l1.5,17.6H57.2L58.7,388.1z"/>
	<path class="st6" d="M277.9,304l-1.9-0.8l-1.3-9.6h-17.5l-1.4,9.6L254,304c-0.2,0.1-0.3,0.3-0.2,0.5c0.1,0.1,0.2,0.2,0.4,0.2h23.6
		c0.2,0,0.4-0.2,0.4-0.4C278.2,304.2,278.1,304.1,277.9,304z"/>
	<path class="st1" d="M309,294.9H223c-0.9,0-1.7-0.8-1.7-1.7V281h89.5v12.1C310.7,294.1,310,294.9,309,294.9z"/>
	<path class="st4" d="M310.8,286.8h-89.6v-51.9c0-1.1,0.9-2.1,2.1-2.1h85.5c1.1,0,2.1,0.9,2.1,2.1V286.8z"/>
	<path class="st5" d="M305.5,283h-78.9c-0.9,0-1.6-0.7-1.6-1.6v-43.3c0-0.9,0.7-1.6,1.6-1.6h78.9c0.9,0,1.6,0.7,1.6,1.6v43.3
		C307.1,282.3,306.3,283,305.5,283z"/>
	<path class="st7" d="M284.7,298.3c1.9-1.8,4.9-1.7,6.7,0.3c0.2,0.2,0.4,0.4,0.5,0.7l10.7-1.9l2.7,6.2l-15.1,2.5
		c-2.3,1.3-5.2,0.4-6.5-1.9C282.7,302.2,283.1,299.7,284.7,298.3z"/>
	<path class="st3" d="M294.6,306.2l11.1-0.1l1.4,0l22.6-0.3c0,0,6.1-5.9,11.5-11.9l-0.8-5.4c-0.7-5.3-3.4-10.2-7.4-13.7
		c-7.7,5.1-12.1,15.3-12.1,15.3l-14,3.4l-1.4,0.3l-8.7,2.1L294.6,306.2z"/>
	<path class="st8" d="M351.5,339.5h-20.8c0,0.9-22.7,1.6-22.7,1.6c-0.5,0.4-1,0.8-1.4,1.3c-1.2,1.4-1.9,3.3-1.9,5.2v1.3
		c0,4.5,3.6,8.1,8.1,8.1h38.6c4.5,0,8.1-3.6,8.1-8.1v-1.3C359.6,343.2,356,339.6,351.5,339.5z"/>
	<rect x="328" y="356.6" class="st8" width="8.4" height="48.4"/>
	<path class="st8" d="M304.2,404.7c0,0.9,12.7,0.4,28.4,0.4c15.7,0,28.4,0.6,28.4-0.4c0-0.9-12.7-8.1-28.4-8.1
		C316.9,396.7,304.2,403.8,304.2,404.7z"/>
	<polygon class="st7" points="298.6,399.2 292.3,399.2 289.3,375.1 298.6,375.1 	"/>
	<path class="st9" d="M300.1,405.3l-20.1,0V405c0-4.3,3.5-7.8,7.8-7.8h0l12.3,0L300.1,405.3z"/>
	<polygon class="st7" points="280.1,399.2 273.9,399.2 270.9,375.1 280.1,375.1 	"/>
	<path class="st9" d="M281.7,405.3l-20.1,0V405c0-4.3,3.5-7.8,7.8-7.8h0l12.3,0L281.7,405.3z"/>
	<circle class="st7" cx="336" cy="249.8" r="10.8"/>
	<path class="st9" d="M353.6,324.1c0,0,3.6,19.3-10.2,21.7c-13.9,2.5-33.8,4.2-33.8,4.2l-9,41.9l-12.1-1.1c0,0,1.6-50.4,5.5-54.4
		c3.9-3.9,28.9-15.8,28.9-15.8L353.6,324.1z"/>
	<path class="st9" d="M326.5,316.1l-6.1,6.1c0,0-43.7,7-45.4,17.1c-2.5,15.3-5.6,48.4-5.6,48.4l13.2-1l5.2-37.7l21-4.8l23.9-13
		L326.5,316.1z"/>
	<path class="st9" d="M346.4,243.3c-1.1-2-2.4-6-4.6-6.8c-1.2-0.4-2.4-0.7-3.7-0.8l-3.7,1.4l2-1.6c-0.4,0-0.8,0-1.2-0.1l-2.5,1
		l1.3-1c-2.3,0-4.7,0.2-6.5,1.6c-1.5,1.2-3,5.7-3.3,7.7c-0.3,1.8-0.2,3.7,0.3,5.5l0.6,0.6c0.2-0.5,0.4-1,0.5-1.6
		c0.5-2,1.7-3.8,3.6-4.8l0,0c1.1-0.6,2.3-0.6,3.5-0.5l5.7,0.2c1.4,0,2.9,0.1,3.9,1c0.7,0.6,1.2,1.4,1.6,2.3c0.5,1.1,1.6,5.1,1.6,5.1
		s0.6-0.8,0.9-0.2c0.5-1.5,0.7-3,0.8-4.6C347.5,246.3,347.1,244.7,346.4,243.3z"/>
	<path class="st7" d="M384.4,254.6c-2.6,0.2-4.6,2.4-4.4,5c0,0.3,0.1,0.6,0.1,0.8l-8.7,6.4l2.6,6.3l12.2-9.3c2.5-0.8,3.9-3.5,3.1-6
		C388.6,255.8,386.6,254.4,384.4,254.6L384.4,254.6z"/>
	<path class="st3" d="M383,267.7L361.1,292c0,0-10.5-3.3-18.5-7l-3.6-11.2c-0.8-2.6-1.2-5.3-1.1-8c11.2-3,24.3,8.1,24.3,8.1
		l16.4-12.8L383,267.7z"/>
	<path class="st3" d="M332,325.9c-3.9-1.3-7.9-2.7-12.3-3.3l-0.2,0l0.1-0.2c4.5-15.8,3.4-25.9,1.2-41.1c-1-6.7,2.6-13.3,8.8-16.1
		l0,0l12.4-0.8l0,0l9,2.7c2.7,0.8,4.5,3.3,4.4,6.1c-0.1,5,0.1,10.6,0.3,16.5c0.5,13.3,1,27-1.9,35.9l0,0l0,0c-2.7,2.2-6,3.3-9.4,3.3
		C340.4,328.8,336.2,327.4,332,325.9z"/>
	<path class="st1" d="M422.2,406.3H23.4c-0.3,0-0.6-0.3-0.6-0.6c0-0.3,0.3-0.6,0.6-0.6h398.8c0.3,0,0.6,0.3,0.6,0.6
		C422.8,406,422.5,406.3,422.2,406.3z"/>
</g>
</svg>
