<?xml version="1.0" encoding="utf-8"?>
<!-- Generator: Adobe Illustrator 23.0.3, SVG Export Plug-In . SVG Version: 6.00 Build 0)  -->
<svg version="1.1" id="Layer_1" xmlns="http://www.w3.org/2000/svg" xmlns:xlink="http://www.w3.org/1999/xlink" x="0px" y="0px" width="216px" height="64px" viewBox="0 0 216 64" style="enable-background:new 0 0 216 64;" xml:space="preserve">
	<style type="text/css">
		.st0 {
			opacity: 0.6;
		}

		.st1 {
			fill: #333333;
		}

		.st2 {
			opacity: 0.8;
		}

		.st3 {
			font-family: 'Comfortaa';
		}

		.st4 {
			font-size: 12.8174px;
		}

		.st5 {
			letter-spacing: 5.5px;
		}

	</style>
	<g>
		<g class="st0">
			<path class="st1" d="M17.8,40.8c0,0,0.1,0,0.1,0c1.8,0,3-1.6,3.9-2.8c1.1-1.5,1.6-3.3,0.9-5.1c-0.1-0.1-0.2-0.2-0.3-0.1
			c-1.5,0.8-2.6,2-3.4,3.4c-0.5,1-1.3,2.2-1.4,3.3c0-0.2,0-0.4-0.1-0.6c-0.2-2-0.1-3.9,0.1-5.8c0,0.1,0.1,0.1,0.2,0.1
			c1.7,0.1,3.5-1.5,4.5-2.6c1.2-1.2,1.9-2.8,1.6-4.4c0,0,0-0.1,0-0.1c0-0.1,0-0.1,0.1-0.2c0.1-0.2-0.2-0.3-0.3-0.1
			c0,0.1-0.1,0.2-0.1,0.2c-1.3,0.7-2.6,1.5-3.6,2.6c-0.8,1-1.5,2.1-2.2,3.2c0.4-2.1,1-4.2,1.7-6.3c0.1-0.4,0.3-0.7,0.4-1.1
			c0,0,0.1,0,0.1,0c0.2,0,0.3,0,0.5-0.1c0,0.1,0.1,0.1,0.2,0.1c1.9,0.1,4,0.2,5.6-0.9c1.2-0.8,1.9-2.1,1.4-3.5
			c0-0.1-0.1-0.1-0.1-0.1c0,0-0.1-0.1-0.1-0.1c0-0.1-0.1-0.1-0.2-0.1c-1.2,0.3-2.3,0.6-3.3,1.4C23,22.1,21.8,23,20.7,24
			c-0.2,0-0.4,0.1-0.6,0.1c1-2.7,2.3-5.4,4.2-7.6c0,0,0,0,0.1,0c0.1,0.5,0.8,0.7,1.2,0.9c1,0.5,2.1,0.7,3.2,0.6
			c1.7-0.1,3.2-1.2,3.7-2.7c0-0.1,0-0.2-0.1-0.2c0,0,0-0.1,0-0.1c-2-1.5-5.6,0.1-7.7,1c0.6-0.6,1.3-1.3,2-1.8
			c0.8-0.6,1.7-1.1,2.6-1.5c2.2,0.3,4.4,0.1,6.6-0.6c1-0.3,2-0.8,2.9-1.3c0.5-0.3,1.5-0.7,1.6-1.3c0-0.1,0-0.2-0.1-0.3l-0.1-0.1
			c0,0-0.1,0-0.1,0c-1.3-1.4-3.6-1.3-5.3-0.8c-2.4,0.6-4.3,2-5.6,3.9c-0.6,0.3-1.2,0.6-1.8,1c-0.2,0.1-0.5,0.3-0.7,0.5
			c1-1.4,1.3-3.1,0.8-4.8c0-0.1-0.1-0.1-0.1-0.1c0-0.1-0.1-0.2-0.2-0.1c-2.4,1.2-2.5,3.9-1.8,6.1c0,0,0,0,0,0.1
			c-1.6,1.4-2.8,3-3.7,4.8c0,0,0-0.1,0-0.1c0.3-1.7,0.3-3.4-0.5-5c0-0.1-0.1-0.1-0.2-0.1c-0.1,0-0.1,0-0.2,0c0,0,0,0,0,0
			c-2.6,0.9-2.9,5.3-0.7,6.7c0.3,0.2,0.5,0.3,0.7,0.3c-0.3,0.7-0.7,1.4-1,2.2c-0.5,1.3-1,2.7-1.4,4c0.3-2.1,0.3-4.3,0.1-6.4
			c0-0.2-0.2-0.3-0.4-0.2c-0.1,0.1-0.2,0.1-0.2,0.2c0,0,0,0,0,0c-1.3,1-2.5,2.2-2.5,3.8c0,1.7,1,3,2.6,3.8c0,0,0.1,0,0.1,0
			c-0.6,2.1-0.9,4.3-1,6.5c0,0,0,0,0,0c0,0,0,0,0,0c0,0,0,0,0-0.1c0,0,0,0,0,0c0,0,0,0,0,0c0,0,0,0,0-0.1c0-1.4-0.1-2.7-0.4-4.1
			c-0.2-1-0.5-2.4-1.4-3.2c-0.1-0.1-0.3-0.1-0.3,0c0,0,0,0,0,0c-0.1,0-0.2,0-0.2,0.1c0,0,0,0.1,0,0.1c-1.3,1.4-2,3.2-1.2,5
			c0.5,1.2,2,2.6,3.5,2.4c0,0,0,0,0.1,0.1c0,0,0.1,0.1,0.1,0.1c-0.1,2.2,0.1,4.3,0.6,6.4c-0.9-1.4-2.2-2.5-3.5-3.7
			c-0.1,0-0.1-0.1-0.2-0.1c0,0,0,0,0,0c0-0.1-0.3-0.1-0.3,0c0,0.2,0.1,0.3,0.1,0.5c0,1.4-0.1,2.6,0.9,3.7c0.8,0.9,2.2,1.4,3.4,1.2
			c0.6,1.6,1.3,3.2,2.3,4.6c0,0.1,0,0.2,0.2,0.2c0.1,0.2,0.3,0.4,0.5,0.6c-1.2-1-2.7-2.3-4.2-2.6c-0.8-0.2-2-0.1-2,0.8
			c0,1.2,1.5,2.4,2.5,2.9c1.2,0.6,2.8,0.8,4,0c0.1-0.1,0.1-0.2,0.1-0.3c0.1,0,0.2,0,0.3,0c1.5,1.8,3.4,3.4,5.3,4.7
			c0.1,0,0.1,0.1,0.2,0.1c0,0,0,0,0,0c0,0,0-0.1-0.1-0.1c-2.2-1.1-4.8-1.4-7.2-1.4c-0.1,0-0.1,0.1-0.1,0.2c1,0.4,2.3,0.3,3.3,0.5
			c1.2,0.2,2.4,0.6,3.6,1c-1,0.3-2.6,0.1-3.3,0c-1.2-0.2-2.3-0.7-3.3-1.3c-0.1,0-0.1,0-0.2,0c0-0.1-0.1-0.1-0.2-0.2
			c-0.1,0-0.2,0-0.2,0.1l0,0.1c0,0.1,0,0.2,0.1,0.2c0,0,0,0,0.1,0c0.1,0,0.1,0,0.2,0c0.1,0.3,0.4,0.9,0.5,0.9
			c0.3,0.3,0.6,0.6,0.9,0.8c0.6,0.4,1.2,0.7,1.9,0.8c1.5,0.3,3.2-0.1,4.3-1c0.1-0.1,0.1-0.2,0-0.3c0,0,0.1-0.1,0.1-0.1
			c1,0.7,2,1.3,3.1,1.9c0,0.1,0,0.1,0,0.2c0,0.1,0.2,0.2,0.2,0c0,0,0-0.1,0-0.1c1.1,0.5,2.3,1,3.6,1.2c0.2,0,0.4-0.3,0.1-0.3
			c-1.2-0.3-2.4-0.7-3.6-1.3c0,0,0,0,0,0c0.1,0.1,0.3,0.1,0.3-0.1c1-1.4,1.5-2.5,0.3-4c-0.6-0.8-2-2.4-3.3-2.4c0,0-0.1-0.1-0.1-0.1
			c-0.1-0.1-0.3,0-0.2,0.2c0,0,0,0,0,0.1c0,0,0,0,0,0c-0.2,1,0.3,2.4,0.7,3.4c0.4,0.9,0.9,1.8,1.6,2.6c-1.9-1-3.8-2.4-5.4-3.8
			c0-0.1,0-0.1,0-0.2c2.9-1.5,0.7-4.5-0.9-6c0,0-0.1-0.1-0.1-0.1c0,0,0-0.1-0.1-0.1c-0.1-0.2-0.3,0-0.3,0.1c0,0.1,0.1,0.1,0.1,0.2
			c-0.1,1.9-0.1,3.9,0.8,5.6c-0.5-0.4-0.9-0.8-1.3-1.3c-0.7-0.7-1.3-1.4-1.8-2.2c1.3-0.4,1.7-1.9,1.8-3.1c0.1-1.7,0.1-4.4-1.5-5.7
			c-0.1-0.1-0.3-0.1-0.4,0c-1.3,1.8-2,4-1.5,6.1 M14.9,28.7c0.2,0,0.4,0.3,0.6,0.9c0.3,0.5,0.4,1.2,0.5,1.7c0.3,1.1,0.4,2.2,0.4,3.3
			c-0.2-0.3-0.5-0.7-0.5-0.7c-0.3-0.6-0.6-1.3-0.8-1.9C14.8,30.8,14.8,29.8,14.9,28.7z M14.2,29.3c0.1-0.1,0.1-0.2,0.2-0.2
			c-0.2,2.2,0.4,4.6,2,6.2c0,0,0,0,0,0C13.5,34.7,12.8,31.4,14.2,29.3z M22,55.9c-0.7-0.4-1.1-0.8-1.5-1.3c1.1,0.7,2.4,1.1,3.7,1.2
			c0.5,0,1.4,0.1,2.2,0C25,56.4,23.5,56.6,22,55.9z M29.7,51.4c0.3,0.3,0.6,0.5,0.9,0.8c0.4,0.5,1,1.1,1.1,1.7
			c0.2,0.9-0.3,1.6-0.8,2.3c0.1-1.9-0.8-3.7-2.1-5.2C29.2,50.9,29.5,51.1,29.7,51.4z M28.5,51.7c-0.2-0.4-0.3-0.7-0.1-0.7
			c1.2,1.7,2.4,3.5,2.2,5.6C29.6,55,28.8,53.5,28.5,51.7z M25,51.8c0.2-1.5,0-3-0.6-4.4C25.6,48.7,26.7,50.7,25,51.8z M24,47.4
			c0.6,1.5,0.8,3,0.7,4.6c0,0,0,0,0,0C24,50.6,23.9,49,24,47.4z M17.7,50.2c-0.5-0.3-1.5-0.9-2-1.6c1.4,1.3,3.3,1.9,5.3,1.8
			C20,50.9,18.7,50.7,17.7,50.2z M21.5,50c-2.4,0.2-4.5-0.6-6-2.2c0,0,0,0,0,0c0.1-1.6,3.1,0.3,3.6,0.6C19.8,48.9,20.6,49.5,21.5,50
			z M22.5,44.4c0.1,1.4,0,3.3-1.6,3.9c-0.2-0.3-0.4-0.5-0.5-0.8c0.8-0.6,1.1-2,1.2-2.9c0.3-1.3,0.3-2.8-0.2-4.1
			C22.4,41.5,22.5,43.2,22.5,44.4z M21.2,40.7c0.1,1,0.3,2,0.2,3c-0.1,1-0.3,2.7-1.1,3.5c0,0,0-0.1-0.1-0.1
			C19.7,44.9,19.9,42.7,21.2,40.7z M22.5,33.8c0.4,2.7-1.9,5.9-4.7,6.5C20.1,38.8,21.9,36.4,22.5,33.8z M19.5,36.1
			c0.7-1.1,1.5-2.1,2.7-2.8c-0.8,2.6-2.1,4.8-4.3,6.6C17.9,38.7,18.8,37.2,19.5,36.1z M14.7,42.1c-0.4-0.6-0.5-1.2-0.6-1.8
			c0.7,1.4,1.9,2.7,3.4,3.4C16.4,43.5,15.4,43.1,14.7,42.1z M17.7,43.4c-1.7-1-2.9-2.4-3.6-4.2c0,0,0-0.1,0-0.1
			C15.6,40.3,17,41.6,17.7,43.4z M22,30.2c-1,1-2.6,2.5-4.2,2.5c0,0-0.1,0-0.1,0c2.8-1,4.7-3.3,5.9-5.8C23.5,28.1,22.9,29.2,22,30.2
			z M20.3,28.8c0.8-0.9,1.8-1.6,2.9-2.2c-1.3,2.3-2.8,4.5-5.5,5.7C18.5,31.1,19.3,29.9,20.3,28.8z M17.7,28.4
			c-1.4-0.9-2.3-2.4-1.9-4c0.2-0.9,0.8-1.5,1.4-2.1C16.5,24.2,16.4,26.8,17.7,28.4C17.7,28.4,17.7,28.4,17.7,28.4z M17.8,27.8
			c-0.3-0.9-0.6-1.7-0.6-2.7c0-1.2,0.3-2.2,0.7-3.3c0,0,0.1,0,0.1-0.1C18.1,23.7,18.1,25.7,17.8,27.8z M24.1,21.9
			c0.9-0.8,2-1.2,3-1.6c-1.5,1.5-3.1,2.6-5.1,3.3C22.7,23,23.4,22.4,24.1,21.9z M27.4,20.5c0.6,2.8-2.9,3.4-5.4,3.4
			C24.1,23.3,26.1,22.1,27.4,20.5z M20.4,20.6c-1.2,0-1.5-1.9-1.5-2.7c0.1-1,0.6-2.1,1.4-2.9c-0.9,1.7-0.7,4,0.4,5.7
			C20.6,20.7,20.5,20.7,20.4,20.6z M21.3,17.9c0,0.5-0.1,1.1-0.2,1.6c0,0.3-0.1,0.5-0.2,0.8c0,0,0,0.1,0,0.1
			c-0.8-1.8-0.7-3.4-0.2-5.3C21.2,16,21.3,16.9,21.3,17.9z M26.5,16c0.6-0.2,1.2-0.4,1.8-0.6c1.1-0.3,2.6-0.7,3.7-0.2
			c-2.2,1-4.3,1.4-6.6,1.2C25.6,16.2,26.1,16.1,26.5,16z M31.9,15.6c-0.5,1-1.4,1.7-2.6,1.9c-0.7,0.2-1.5,0.1-2.2-0.1
			c-0.3-0.1-1.7-0.4-1.8-0.7c0,0,0,0,0,0C27.6,17,29.9,16.6,31.9,15.6z M25.5,13.4c-0.1-1.4,0.2-2.7,1.1-3.7
			C25.9,10.8,25.5,12,25.5,13.4z M27.1,9.5c0.4,1.7-0.1,3.3-1.3,4.6C25.9,12.5,26.3,11,27.1,9.5z M38.9,10.3
			c-0.3,0.2-0.7,0.4-1.1,0.6c-0.8,0.4-1.7,0.8-2.7,1c-1.6,0.4-3.2,0.6-4.9,0.5c2.9-1.2,6.1-1.8,9.2-2.5C39.3,10,39.1,10.2,38.9,10.3
			z M30.3,11.9c2.2-2.3,6.6-4.5,9.5-2.5C36.6,9.9,33.3,10.6,30.3,11.9z" />
			<path class="st1" d="M52.6,10.4c0.1,0.6,1,1.1,1.4,1.5c0.8,0.7,1.7,1.2,2.7,1.7c2,0.9,4.2,1.4,6.4,1.4c0.8,0.5,1.6,1.1,2.3,1.8
			c0.7,0.6,1.2,1.3,1.8,2c-1.9-1.1-5.3-3.2-7.5-1.9c0,0-0.1,0.1-0.1,0.1c-0.1,0-0.1,0.1-0.1,0.2c0.3,1.6,1.6,2.8,3.3,3.1
			c1.1,0.2,2.2,0.1,3.2-0.2c0.5-0.2,1.2-0.3,1.4-0.8c0,0,0,0,0.1,0c1.6,2.4,2.4,5.3,3,8c-0.2-0.1-0.4-0.1-0.5-0.2
			c-1-1.1-2-2.2-3-3.2c-0.8-0.8-1.9-1.3-3.1-1.7c-0.1,0-0.1,0-0.2,0.1c-0.1,0-0.1,0-0.1,0.1c0,0-0.1,0.1-0.1,0.1
			C63,23.6,63.4,25,64.5,26c1.4,1.2,3.5,1.4,5.4,1.5c0.1,0,0.2,0,0.3-0.1c0.1,0,0.3,0.1,0.4,0.1c0,0,0.1,0,0.1,0
			c0.1,0.4,0.2,0.8,0.2,1.1c0.4,2.1,0.7,4.3,0.8,6.4c-0.5-1.2-1-2.3-1.7-3.4c-0.8-1.2-2-2.1-3.2-3c0-0.1-0.1-0.2-0.1-0.3
			c-0.1-0.2-0.4-0.1-0.3,0.1c0,0.1,0,0.1,0,0.2c0,0,0,0.1-0.1,0.1c-0.5,1.6,0,3.2,1,4.6c0.9,1.2,2.4,3.1,4.1,3.2
			c0.1,0,0.2,0,0.2-0.1c0,2-0.3,3.9-0.8,5.8c0,0.2-0.1,0.4-0.2,0.6c0-1.2-0.5-2.4-0.9-3.5c-0.6-1.5-1.4-2.8-2.9-3.8
			c-0.1-0.1-0.3,0-0.4,0.1c-1,1.7-0.7,3.5,0.1,5.2c0.7,1.3,1.7,3.1,3.5,3.3c0,0,0.1,0,0.1,0c-0.6,1.8-1.5,3.5-2.6,5
			c0.7-2,0.4-4.3-0.6-6.2c-0.1-0.1-0.2-0.2-0.4-0.1c-1.7,1.1-2.2,3.7-2.3,5.5c-0.1,1.2,0,2.8,1.3,3.3c-0.7,0.7-1.4,1.4-2.2,2
			c-0.5,0.4-1,0.7-1.5,1.1c1.2-1.6,1.5-3.5,1.6-5.5c0,0,0.1-0.1,0.1-0.1c0.1-0.1-0.1-0.3-0.2-0.2c0,0,0,0.1-0.1,0.1c0,0-0.1,0-0.1,0
			c-1.9,1.3-4.4,4-1.8,5.8c0,0.1,0,0.1,0,0.2c-1.8,1.2-3.8,2.3-5.9,3.1c0.8-0.7,1.4-1.5,1.9-2.4c0.5-0.9,1.2-2.2,1.2-3.3
			c0,0,0,0,0,0c0,0,0,0,0.1-0.1c0.1-0.1-0.1-0.3-0.2-0.2c0,0-0.1,0.1-0.1,0.1c-1.2-0.2-2.9,1.2-3.6,1.9c-1.3,1.3-1,2.5-0.3,4
			c0.1,0.1,0.2,0.2,0.3,0.1c0,0,0,0,0,0c-1.2,0.4-2.5,0.7-3.7,0.8c-0.3,0-0.2,0.4,0.1,0.4c1.3,0,2.5-0.3,3.7-0.7c0,0,0,0.1,0,0.1
			c0,0.1,0.2,0.1,0.2,0c0-0.1,0-0.1,0-0.2c1.2-0.4,2.3-0.9,3.3-1.5c0,0,0.1,0.1,0.1,0.1c-0.1,0-0.2,0.2-0.1,0.3
			c0.9,1.1,2.6,1.7,4.1,1.6c0.7,0,1.4-0.2,2-0.5c0.4-0.2,0.7-0.4,1-0.7c0.1,0,0.4-0.5,0.6-0.9c0,0,0.1,0.1,0.2,0.1c0,0,0,0,0.1,0
			c0.1,0,0.2-0.1,0.2-0.2l0-0.1c0-0.1-0.1-0.2-0.2-0.1c-0.1,0-0.2,0.1-0.3,0.1c0,0-0.1-0.1-0.2,0c-1.1,0.5-2.2,0.8-3.5,0.9
			c-0.8,0-2.4,0-3.3-0.4c1.2-0.2,2.4-0.5,3.7-0.5c1.1-0.1,2.3,0.2,3.4-0.1c0.1,0,0.1-0.2,0-0.2C64,56.2,61.4,56.2,59,57
			c0,0-0.1,0-0.1,0.1c0,0,0,0,0,0c0.1,0,0.1-0.1,0.2-0.1c2.2-1.1,4.2-2.4,6-4c0.1,0,0.2,0.1,0.3,0.1c-0.1,0.1-0.1,0.2,0,0.3
			c1,0.9,2.7,0.9,3.9,0.5c1.1-0.4,2.7-1.4,2.9-2.6c0.2-0.9-1.1-1.1-1.9-1.1c-1.5,0.1-3.1,1.2-4.5,2c0.2-0.2,0.4-0.4,0.5-0.6
			c0.1,0,0.2-0.1,0.2-0.2c1.2-1.3,2.2-2.8,3-4.3c1.3,0.3,2.6,0,3.6-0.8c1.2-1,1.3-2.3,1.5-3.6c0.1-0.2,0.1-0.3,0.2-0.5
			c0-0.2-0.2-0.2-0.3-0.1c0,0,0,0,0,0c-0.1,0-0.1,0-0.2,0c-1.5,1-2.9,1.9-4,3.2c0.8-2,1.3-4.1,1.6-6.2c0,0,0.1-0.1,0.1-0.1
			c0,0,0,0,0.1-0.1c1.5,0.4,3.1-0.8,3.8-1.9c1-1.6,0.6-3.6-0.5-5.1c0,0,0-0.1,0-0.1c0-0.1-0.1-0.1-0.2-0.2c0,0,0,0,0,0
			c-0.1-0.1-0.2-0.1-0.3,0c-1,0.6-1.4,2-1.8,3c-0.5,1.3-0.8,2.6-1,4c0,0,0,0,0,0.1c0,0,0,0,0,0c0,0,0,0,0,0c0,0,0,0.1,0,0.1
			c0,0,0,0,0,0c0,0,0,0,0,0c0.2-2.2,0.2-4.4,0-6.6c0,0,0.1,0,0.1,0c1.7-0.5,2.9-1.8,3.2-3.4c0.2-1.7-0.8-3-1.9-4.1c0,0,0,0,0,0
			c-0.1-0.1-0.1-0.1-0.2-0.2c-0.1-0.1-0.4-0.1-0.4,0.1c-0.5,2.1-0.8,4.2-0.8,6.4c-0.2-1.4-0.5-2.8-0.8-4.2c-0.2-0.8-0.4-1.5-0.6-2.3
			c0.2,0,0.4,0,0.8-0.2c2.4-1.1,2.8-5.4,0.3-6.7c0,0,0,0,0,0c-0.1,0-0.1,0-0.2,0c-0.1,0-0.2,0-0.2,0.1c-1,1.5-1.2,3.2-1.2,4.9
			c0,0,0,0.1,0,0.1c-0.7-1.9-1.6-3.7-3-5.3c0,0,0,0,0-0.1c1-2,1.3-4.7-0.9-6.3c-0.1-0.1-0.2,0-0.2,0.1c-0.1,0-0.1,0.1-0.1,0.1
			c-0.7,1.6-0.7,3.3,0.1,4.9c-0.2-0.2-0.4-0.4-0.6-0.5c-0.5-0.4-1.1-0.8-1.7-1.2c-1-2-2.8-3.7-5-4.6c-1.7-0.7-3.9-1.1-5.4,0.1
			c0,0-0.1,0-0.1,0l-0.1,0C52.7,10.2,52.6,10.3,52.6,10.4z M74.4,35.6c-0.3,0.6-0.6,1.2-1.1,1.8c-0.1,0.1-0.3,0.4-0.6,0.7
			c0.2-1.1,0.4-2.2,0.9-3.3c0.2-0.5,0.5-1.1,0.8-1.6c0.3-0.5,0.5-0.8,0.7-0.8C75.1,33.5,74.9,34.6,74.4,35.6z M72.7,38.8
			C72.7,38.8,72.7,38.7,72.7,38.8c1.8-1.5,2.7-3.8,2.9-5.9c0,0.1,0.1,0.2,0.1,0.3C76.8,35.4,75.6,38.6,72.7,38.8z M59.7,57.8
			c0.7,0.2,1.6,0.3,2.1,0.3c1.4,0.1,2.7-0.2,3.9-0.8c-0.5,0.4-0.9,0.8-1.7,1.1C62.4,59,61,58.6,59.7,57.8z M58,52.8
			c-1.5,1.4-2.7,3-2.8,4.9c-0.4-0.8-0.8-1.4-0.4-2.3c0.2-0.6,0.8-1.1,1.3-1.5c0.3-0.3,0.7-0.5,1-0.7C57.4,52.8,57.7,52.7,58,52.8z
			 M55.4,58.1c0.1-2.1,1.5-3.7,3-5.2c0.2,0.1,0.1,0.3-0.2,0.7C57.7,55.3,56.6,56.7,55.4,58.1z M63,49.8c-0.8,1.3-1.2,2.8-1.3,4.3
			C60.2,52.8,61.6,51,63,49.8z M62,54.4C62,54.4,62,54.4,62,54.4c0.1-1.6,0.5-3.1,1.3-4.5C63.2,51.5,62.9,53,62,54.4z M65.9,53.2
			c1.9,0.4,3.9,0,5.5-1.1c-0.6,0.6-1.6,1.2-2.2,1.4C68.1,53.8,66.8,53.8,65.9,53.2z M68.1,51.4c0.5-0.3,3.8-1.8,3.6-0.2c0,0,0,0,0,0
			c-1.8,1.4-4,2-6.3,1.5C66.3,52.4,67.2,51.9,68.1,51.4z M66.9,43.3c-0.6,1.2-0.9,2.7-0.8,4.1c0,0.9,0.1,2.3,0.8,3
			c-0.2,0.2-0.4,0.5-0.6,0.7c-1.5-0.8-1.3-2.6-1-4C65.5,45.9,65.8,44.2,66.9,43.3z M67.1,50c0,0-0.1,0.1-0.1,0.1
			c-0.7-0.9-0.6-2.6-0.6-3.6c0.1-1,0.3-2,0.6-3C68.1,45.7,68,47.9,67.1,50z M70.4,43.6c-2.7-1-4.4-4.5-3.6-7.1
			C67,39.2,68.4,41.8,70.4,43.6z M70.5,43.2c-1.9-2.1-2.9-4.4-3.3-7.1c1.1,0.8,1.8,1.9,2.3,3.1C70,40.4,70.6,42,70.5,43.2z
			 M70.2,46.9c1.6-0.5,3-1.6,3.9-3c-0.1,0.6-0.4,1.2-0.8,1.8C72.5,46.6,71.4,46.9,70.2,46.9z M74.3,42.8c0,0,0,0.1,0,0.1
			c-0.9,1.7-2.3,2.9-4.2,3.7C71.1,45,72.7,43.9,74.3,42.8z M66.8,29.6c0.8,2.6,2.3,5.1,4.9,6.5c0,0-0.1,0-0.1,0
			c-1.5-0.1-3-1.9-3.8-3C67.1,32,66.7,30.8,66.8,29.6z M71.7,35.7c-2.5-1.5-3.6-3.9-4.6-6.3c1,0.7,1.9,1.5,2.5,2.5
			C70.5,33.1,71.1,34.4,71.7,35.7z M72.4,31.8c1.5-1.4,1.8-4.1,1.4-6.1c0.6,0.7,1,1.4,1.1,2.3C75,29.7,73.9,31.1,72.4,31.8
			C72.4,31.8,72.4,31.8,72.4,31.8z M73.1,25.1C73.2,25.1,73.2,25.1,73.1,25.1c0.3,1.2,0.5,2.3,0.3,3.4c-0.2,1-0.6,1.8-1,2.6
			C72.4,29.1,72.7,27.1,73.1,25.1z M68.9,26.5c-1.8-1-3.3-2.2-4.6-3.9c1,0.6,2,1.1,2.8,2C67.7,25.2,68.3,25.8,68.9,26.5z M68.8,26.9
			c-2.5-0.3-5.9-1.4-4.8-4.1C65,24.6,66.8,26,68.8,26.9z M70.6,23.8c1.3-1.5,1.8-3.7,1.2-5.6c0.7,0.8,1,2,0.9,3
			c-0.1,0.8-0.7,2.7-1.9,2.5C70.7,23.8,70.6,23.8,70.6,23.8z M71.3,18.3c0.3,1.9,0.1,3.5-1,5.2c0,0,0-0.1,0-0.1c0-0.3,0-0.6,0-0.8
			c0-0.5,0-1.1,0.1-1.6C70.5,20,70.8,19.1,71.3,18.3z M66.6,19c-2.3-0.1-4.4-0.8-6.4-2c1.2-0.3,2.6,0.2,3.7,0.7
			c0.6,0.2,1.1,0.5,1.7,0.8C65.9,18.5,66.4,18.7,66.6,19z M66.6,19.3C66.6,19.3,66.6,19.3,66.6,19.3c-0.2,0.4-1.6,0.5-1.9,0.5
			c-0.7,0.1-1.5,0.1-2.2-0.2c-1.1-0.4-1.9-1.2-2.2-2.2C62,18.6,64.3,19.3,66.6,19.3z M66.4,12.1c0.8,1.2,0.9,2.5,0.6,3.9
			C67.1,14.6,66.9,13.3,66.4,12.1z M66.4,16.6c-1-1.4-1.2-3.1-0.6-4.7C66.4,13.5,66.6,15,66.4,16.6z M53.6,10.8c3,1.1,6,2.1,8.7,3.6
			c-1.6-0.1-3.3-0.4-4.8-1.1C56.6,13,55.8,12.5,55,12c-0.3-0.2-0.7-0.5-1-0.7C53.9,11.1,53.7,10.9,53.6,10.8z M53.3,10.2
			c3.2-1.7,7.2,1,9.1,3.6C59.6,12.2,56.4,11.1,53.3,10.2z" />
		</g>
		<g class="st2">
			<line class="st1" x1="56.1" y1="42.8" x2="56.1" y2="42.8" />
			<g>
				<path class="st1" d="M47.7,46.9c1.1,1.5,1.5,3.2,1.2,3.4c-0.2,0.1-0.8-0.8-2.2-2c-0.2-0.2-0.6-0.4-1-0.6
				c-0.5-0.2-0.6-0.1-1.3-0.3c-0.9-0.3-1.4-0.7-1.8-1c-0.3-0.3-0.4-0.4-0.4-0.6c-0.1-0.5,0.4-0.8,0.5-0.9c0.4-0.3,0.8-0.3,1.1-0.4
				c0.2-0.1,0.4-0.2,0.7-0.8c0.1-0.1,0.2-0.3,0.3-0.5c0.2-0.4,0.4-0.9,0.7-1.6c0.4-1.1,0.6-1.7,0.8-2.5c0.3-1.4,0.4-2.5,0.4-2.9
				c0.1-1.4,0-2.5-0.1-3.1c-0.1-0.9-0.3-1.6-0.3-1.9c-0.2-0.7-0.3-1.2-0.6-2.1c-0.4-1.3-0.6-1.9-1-2.5c-0.1-0.3-0.3-0.5-0.4-0.8
				c-0.1-0.2-0.3-0.4-0.5-0.7c-0.1-0.1-0.1-0.1-0.2-0.2c-0.1-0.1-0.2-0.2-0.2-0.2c-0.6-0.5-1.8-2-2-2.5c-0.1-0.2-0.3-0.6-0.4-1
				c-0.1-0.4-0.2-0.9-0.2-1.3c0-0.8,0.1-1.4,0.2-1.4c0,0,0,0.1,0.2,0.4c0,0,0.2,0.6,0.6,1.2c0.2,0.3,0.4,0.5,0.7,1
				c0.8,0.9,1.3,1.3,1.8,1.7c0.3,0.3,0.6,0.6,1,1l0,0l1.3,1.6l0.2,0.2l0,0c0.8,1.1,2.1,3.2,2.4,6.3c0,0,0,0,0,0
				c0.1,1.1,0.1,2.3-0.1,3.7c-0.3,2.2-1,4.6-2.4,7.5c-0.3,0.5-0.5,1.1-0.9,1.6c0,0,0,0.1-0.1,0.1l0,0L45.6,45l0.4,0.3
				C46.5,45.6,47.1,46.1,47.7,46.9z" />
				<line class="st1" x1="50.2" y1="41.1" x2="50.2" y2="41.1" />
				<line class="st1" x1="50.2" y1="41.1" x2="50.2" y2="41.1" />
				<path class="st1" d="M48.4,44.2c0,0-0.1,0-0.1,0" />
				<path class="st1" d="M58.8,43c-0.7-0.3-0.9-0.7-1-1.1c0.2,0.1,0.3,0.2,0.3,0.2c0.5,0.2,0.9,0.2,1.3-0.3c0,0,0.3-0.4,0.2-0.9
				c0-0.3-0.2-0.6-0.7-0.9c-0.1,0-0.1-0.1-0.2-0.1c0,0-0.1,0-0.2,0c-0.2,0-0.6,0-1.1,0.2c-0.2,0.1-0.3,0.1-0.5,0.2l-0.4,0.2
				c-0.1,0-0.1,0.1-0.2,0.1c-0.1,0.1-0.2,0.1-0.4,0.2c-0.1,0.1-0.3,0.2-0.4,0.3c-0.2,0.2-0.5,0.3-0.8,0.5c-0.4,0.3-0.8,0.5-1.2,0.9
				c0.3,0,0.6-0.1,0.9-0.1c0.8,0,1.3,0.1,1.7,0.3c-0.5-0.1-1.2-0.1-2,0.1c-0.1,0-0.1,0.1-0.2,0.1c-0.4,0.2-1.4,0.6-2.8,1.1
				c-0.9,0.2-2,0.3-2.8,0.2c1.9-0.1,3.5-1.1,4.7-2.5c0.5-0.5,0.9-1.1,1.3-1.7c0-0.1,0.1-0.2,0.1-0.2c0.2-0.3,0.4-0.6,0.5-0.9
				c0,0,0-0.1,0.1-0.1c0,0,0,0,0,0l0,0c0.1-0.1,0.1-0.2,0.2-0.4c0.2-0.3,0.3-0.7,0.4-1c0.1-0.2,0.1-0.4,0.2-0.6
				c0.2-0.6,0.3-1.2,0.3-1.7c-0.5,1.4-1.2,2.5-1.8,3.5c-0.8,1.1-1.6,2-2.2,2.5c0,0,0,0,0,0c-0.7,0.6-1.2,1-1.3,1c0,0,0,0,0,0
				c0,0,0,0,0,0c-0.2,0.1-0.3,0.2-0.5,0.3c-0.9,0.6-1.8,1-2.6,1.2c-0.3,0.1-0.5,0.2-0.7,0.1c-0.2-0.1-0.2-0.2-0.2-0.5
				c0.1-0.1,0.3-0.2,0.4-0.3c0.8-0.6,1.4-1.2,2-1.9c2.5-2.9,3.5-6.2,3.8-9.2c0.1-0.8,0.1-1.6,0.1-2.3c0-0.1,0-0.2,0-0.3
				c-0.1,0-0.3,0.1-0.4,0.1c-0.8,0.3-1.8,0.8-3.3,1.7l-0.1,0.1c0.7-1.4,1.5-2.8,2.7-3.8c0.1-0.1,0.2-0.2,0.3-0.3
				c0.7-0.6,1.4-1,2.2-1.2h0c0,0,0.1,0,0.1,0c0.1,0,0.3-0.1,0.4-0.1l0.1,0l0,0c0,0.1,0.1,0.1,0.1,0.2c0.2,0.3,0.3,0.8,0.4,1.2
				c0.1,0.5,0.2,1,0.2,1.6c0,0.1,0,0.2,0,0.3c0,0.6-0.1,1.3-0.2,2.1c-0.5,2.5-2.1,5.9-5.7,10.1c1.7-0.9,2.9-2.1,3.9-3.5
				c1.7-2.4,2.6-5.3,3-7.8c1.3,1.8,2,4.1,0.5,6.8c-0.3,0.6-0.8,1.2-1.3,1.9c-0.1,0.1-0.2,0.2-0.3,0.3c0.7-0.2,1.3-0.3,1.9-0.4h0
				c0.6,0,1.1,0,1.5,0.2C60.7,38.9,61,40,61,40c0.1,0.3,0.1,0.6,0.2,0.8C61.4,43.4,58.8,43,58.8,43z" />
				<path class="st1" d="M56.1,42.8C56.1,42.8,56.1,42.8,56.1,42.8C56.1,42.8,56.1,42.8,56.1,42.8L56.1,42.8" />
				<path class="st1" d="M40.5,45.3c-4.4-0.8-7.3-2.4-9.1-4.4c-0.1-0.2-0.3-0.3-0.4-0.5c-2.2-2.8-2.5-6.2-2.2-9
				c1.9,0.5,3.5,1.6,4.3,3.5c0,0.1,0.1,0.2,0.1,0.3v0l0,0.1l0,0c0.1,0.5,0,0.5,0,0.5c-0.1-0.1-0.2-0.2-0.3-0.4
				c-1.7-2.2-2.7-1.8-2.7-1.8c0,0-0.1,0-0.1,0c0.2,2,0.9,3.6,1.6,4.8c0.1,0.1,0.2,0.3,0.3,0.4c0.4,0.5,0.7,1,1.1,1.3
				C34.7,41.8,36.9,43.6,40.5,45.3z" />
				<path class="st1" d="M40.8,27.6c-0.9,0.6-1.8,1.7-2.5,3.1c-0.3,0.5-0.6,1.2-1,2c-0.5-0.4-1-0.8-1.6-1c-0.2-0.1-0.4-0.1-0.6-0.2
				c0,0.2,0,0.3-0.1,0.5c0,0.7,0.2,1.7,0.5,2.7c0,0,0,0.1,0,0.1c0,0,0,0,0,0c0.1,0.4,0.3,0.8,0.4,1.2c0.5,1.3,1,2.5,1.5,3.4
				c0.3,0.6,0.7,1.1,1.1,1.6c0.9,1.1,2.1,2,3.5,2.5c0,0,0,0,0,0c0.3,0,0.5,0.2,0.5,0.5c0,0.3-0.2,0.5-0.5,0.5c0,0-0.1,0-0.1,0
				c0,0-6-2.7-8.2-5.3c1.4-0.2,2.7,0.7,3.4,1.4l0.6,0.7c0-0.1-0.3-0.3-0.6-0.7l-1.2-1.3l0,0l-0.3-0.3c-0.2-0.2-0.4-0.4-0.5-0.6
				c-0.2-0.3-0.4-0.6-0.6-0.9c-1-1.7-1.3-3.5-1.2-5.4l0-0.3c0-1.8-0.5-3.3-1.7-4.1c0,0,0,0-0.1,0c1,0.1,1.8,0.4,2.3,0.8
				c0.1,0.1,0.3,0.2,0.4,0.3c0,0,0,0,0,0c0,0,0,0,0,0c0.9,0.5,1.7,1.3,2.5,2.5c1.5-4.1,4.5-5.9,5.3-6.3c0.4,0.7,0.4,1.2,0.4,1.6
				c-2,4.7-0.3,11.3,0,12.3c0.5,1.1,1,2.4,1.2,3.9c-0.1,0-0.1,0-0.2-0.1C40.4,39.2,37.9,34,40.8,27.6z" />
			</g>
			<line class="st1" x1="56.4" y1="40.6" x2="56.4" y2="40.6" />
			<path class="st1" d="M61.2,45.3" />
			<path class="st1" d="M33.3,40.3c-0.6-0.7-1-1.3-1.4-1.8c-0.6-1-0.8-1.6-0.8-1.6" />
		</g>
		<text transform="matrix(1.0837 0 0 1 88.8102 31.4816)">
			<tspan x="0" y="0" class="st1 st3 st4 st5">THOUGHT </tspan>
			<tspan x="11.5" y="15.4" class="st1 st3 st4 st5">BUBBLE</tspan>
		</text>
	</g>
</svg>
